<?xml version="1.0" encoding="UTF-8" standalone="no"?>
<svg
   xmlns="http://www.w3.org/2000/svg"
   version="1.1"
   viewBox="0 0 256 257"
   preserveAspectRatio="xMidYMid meet"
   height="32"
   width="31.88"
   class="iconify iconify--logos"
   role="img"
   aria-hidden="true">
  <g
     aria-label="TODO">
    <path
       d="M 10.451709,15.332391 V 1.946975 H 103.90625 V 15.332391 H 64.723487 V 126.55303 H 49.634473 V 15.332391 Z" />
    <path
       d="m 227.47798,64.250003 q 0,19.713068 -7.11861,34.071969 -7.11861,14.358898 -19.53054,22.146778 -12.41193,7.78788 -28.35274,7.78788 -15.94082,0 -28.35275,-7.78788 -12.41193,-7.78788 -19.53054,-22.146778 -7.11861,-14.358901 -7.11861,-34.071969 0,-19.713067 7.11861,-34.071968 7.11861,-14.358901 19.53054,-22.1467799 12.41193,-7.78787852 28.35275,-7.78787852 15.94081,0 28.35274,7.78787852 12.41193,7.7878789 19.53054,22.1467799 7.11861,14.358901 7.11861,34.071968 z m -14.60227,0 q 0,-16.184185 -5.41501,-27.318417 -5.35417,-11.134233 -14.54143,-16.853456 -9.12642,-5.719224 -20.44318,-5.719224 -11.31676,0 -20.50403,5.719224 -9.12642,5.719223 -14.54143,16.853456 -5.35416,11.134232 -5.35416,27.318417 0,16.184186 5.35416,27.318418 5.41501,11.134229 14.54143,16.853459 9.18727,5.71922 20.50403,5.71922 11.31676,0 20.44318,-5.71922 9.18726,-5.71923 14.54143,-16.853459 5.41501,-11.134232 5.41501,-27.318418 z" />
    <path
       d="M 55.718753,255.05303 H 17.266102 V 130.44697 h 40.156249 q 18.131155,0 31.029829,7.48367 12.89867,7.42282 19.77391,21.35582 6.87524,13.87216 6.87524,33.22017 0,19.46969 -6.93608,33.52438 -6.93608,13.99385 -20.199812,21.53835 -13.263731,7.48367 -32.246685,7.48367 z M 32.355117,241.66761 h 22.390151 q 15.454072,0 25.614819,-5.96259 10.160748,-5.9626 15.149858,-16.97514 4.989105,-11.01255 4.989105,-26.22325 0,-15.08902 -4.928262,-25.97988 -4.928267,-10.9517 -14.723958,-16.79261 -9.795691,-5.90175 -24.397964,-5.90175 H 32.355117 Z" />
    <path
         d="m 245.54829,192.75 q 0,19.71307 -7.11861,34.07197 -7.1186,14.3589 -19.53054,22.14678 -12.41193,7.78788 -28.35274,7.78788 -15.94081,0 -28.35275,-7.78788 -12.41193,-7.78788 -19.53054,-22.14678 -7.1186,-14.3589 -7.1186,-34.07197 0,-19.71307 7.1186,-34.07197 7.11861,-14.3589 19.53054,-22.14678 12.41194,-7.78788 28.35275,-7.78788 15.94081,0 28.35274,7.78788 12.41194,7.78788 19.53054,22.14678 7.11861,14.3589 7.11861,34.07197 z m -14.60227,0 q 0,-16.18419 -5.41501,-27.31842 -5.35417,-11.13423 -14.54143,-16.85345 -9.12642,-5.71923 -20.44318,-5.71923 -11.31676,0 -20.50403,5.71923 -9.12642,5.71922 -14.54142,16.85345 -5.35417,11.13423 -5.35417,27.31842 0,16.18418 5.35417,27.31842 5.415,11.13423 14.54142,16.85345 9.18727,5.71923 20.50403,5.71923 11.31676,0 20.44318,-5.71923 9.18726,-5.71922 14.54143,-16.85345 5.41501,-11.13424 5.41501,-27.31842 z" />
  </g>
</svg>
